<svg xmlns="http://www.w3.org/2000/svg" xmlns:xlink="http://www.w3.org/1999/xlink" preserveAspectRatio="xMidYMid meet" version="1.0" viewBox="-0.1 -0.3 348.3 400.3" zoomAndPan="magnify" style="fill: rgb(255, 255, 255);" original_string_length="4629"><g id="__id51_so7lv7nj3m"><path d="M70.35,299.99c-1.77,3.07-5.69,4.13-8.77,2.37l-33.45-19.31c-3.07-1.77-4.13-5.7-2.37-8.77c1.77-3.07,5.69-4.13,8.77-2.37 l33.45,19.31C71.06,292.99,72.12,296.92,70.35,299.99z M348.14,318.28c0,22.56-9.15,43-23.94,57.79 C309.41,390.85,288.98,400,266.41,400c-20.96,0-40.07-7.9-54.53-20.87l-34.09,19.68c-0.01,0.01-0.03,0.02-0.04,0.03 c-0.23,0.16-0.48,0.31-0.73,0.44c-0.05,0.03-0.1,0.05-0.16,0.07c-0.24,0.12-0.49,0.22-0.74,0.3c-0.03,0.01-0.06,0.02-0.09,0.03 c-0.28,0.09-0.57,0.16-0.86,0.21c-0.06,0.01-0.12,0.02-0.19,0.03c-0.3,0.04-0.61,0.07-0.92,0.07c-0.01,0-0.02,0-0.03,0 c-0.29,0-0.58-0.03-0.87-0.07c-0.08-0.01-0.15-0.02-0.23-0.03c-0.28-0.05-0.56-0.11-0.83-0.2c-0.05-0.02-0.1-0.04-0.14-0.05 c-0.23-0.08-0.46-0.17-0.68-0.28c-0.07-0.03-0.13-0.06-0.2-0.09c-0.24-0.13-0.48-0.27-0.7-0.42c-0.02-0.01-0.04-0.02-0.06-0.03 L3.23,302.34c-2.06-1.18-3.22-3.35-3.22-5.57l0-193.13c-0.15-2.36,1-4.72,3.19-5.99L170.82,0.88c1.93-1.12,4.4-1.21,6.47-0.01 L344.9,97.64c0.09,0.05,0.17,0.12,0.26,0.18c0.07,0.05,0.14,0.09,0.21,0.14c0.11,0.08,0.22,0.16,0.32,0.24 c0.13,0.11,0.26,0.22,0.38,0.33c0.06,0.06,0.12,0.11,0.18,0.17c0.16,0.16,0.31,0.34,0.45,0.52c0.04,0.05,0.08,0.11,0.12,0.16 c0.13,0.18,0.25,0.36,0.36,0.55c0.02,0.03,0.03,0.05,0.05,0.07c0.01,0.01,0.01,0.03,0.02,0.04c0.08,0.14,0.15,0.29,0.22,0.44 c0.02,0.04,0.04,0.09,0.06,0.13c0.07,0.15,0.12,0.3,0.18,0.46c0.02,0.05,0.04,0.09,0.05,0.14c0.05,0.14,0.08,0.29,0.12,0.43 c0.02,0.06,0.03,0.12,0.05,0.18c0.03,0.13,0.05,0.26,0.07,0.39c0.01,0.08,0.03,0.16,0.04,0.24c0.01,0.12,0.02,0.24,0.03,0.36 c0.01,0.09,0.01,0.18,0.01,0.28c0,0.03,0,0.06,0,0.1l0.01,193.56c0,1.63-0.63,3.22-1.78,4.42 C347.51,306.71,348.14,312.42,348.14,318.28z M168.4,189.31l5.65,3.26v0l8.73-5.04l37.58-21.7L65.61,76.48l-46.32,26.74 L168.4,189.31z M78.48,69.05l154.75,89.35l39.71-22.93L118.18,46.12L78.48,69.05z M240.76,196l38.58-22.28v-27.09l-38.58,22.28V196z M131.03,38.71l154.77,89.35l43.03-24.84L174.06,13.86L131.03,38.71z M12.85,293.07l154.75,89.35V203.68l-4.48-2.59L12.86,114.35 L12.85,293.07z M180.51,382.41l22.28-12.86c-9.71-12.04-16.09-26.88-17.7-43.13c-0.03-0.35-0.05-0.7-0.08-1.06 c-0.08-0.99-0.17-1.97-0.22-2.97c-0.06-1.2-0.08-2.41-0.09-3.62c0-0.17-0.01-0.33-0.01-0.49c0-22.56,9.15-43,23.94-57.79 c14.79-14.79,35.22-23.94,57.79-23.94c0,0,0,0,0,0s0,0,0,0c1.3,0,2.59,0.04,3.87,0.1c0.42,0.02,0.84,0.05,1.26,0.08 c0.86,0.05,1.72,0.12,2.58,0.2c0.49,0.05,0.98,0.1,1.47,0.15c0.78,0.09,1.56,0.19,2.34,0.3c0.5,0.07,1.01,0.14,1.51,0.22 c0.78,0.13,1.55,0.27,2.33,0.42c0.47,0.09,0.94,0.17,1.41,0.27c1.15,0.24,2.3,0.5,3.44,0.79c0.53,0.14,1.06,0.29,1.58,0.44 c0.64,0.18,1.29,0.35,1.93,0.55c0.62,0.19,1.24,0.39,1.86,0.6c0.52,0.17,1.05,0.35,1.57,0.53c0.65,0.23,1.3,0.47,1.95,0.72 c0.45,0.17,0.9,0.35,1.35,0.53c0.69,0.28,1.37,0.55,2.05,0.85c0.32,0.14,0.64,0.29,0.96,0.43c2.58,1.16,5.08,2.44,7.5,3.85 c0.19,0.11,0.39,0.22,0.58,0.33c0.76,0.45,1.51,0.92,2.26,1.39c0.23,0.14,0.46,0.29,0.68,0.44c0.75,0.49,1.48,0.98,2.21,1.49 c0.17,0.12,0.35,0.25,0.52,0.37c3.77,2.67,7.32,5.64,10.58,8.9c4.17,4.17,7.87,8.8,11.06,13.79l-0.01-159.94l-43.01,24.83v38.24 h-0.03c0,2.22-1.16,4.38-3.22,5.57l-50.96,29.42c-1.05,0.75-2.34,1.19-3.73,1.19c-3.56,0-6.45-2.89-6.45-6.45v-30.8l-47.35,27.34v0 V382.41z M335.24,318.28c0-17.81-6.77-34.05-17.87-46.27c0,0-0.01-0.01-0.01-0.01c-0.74-0.81-1.5-1.61-2.27-2.38 c-6.23-6.22-13.64-11.26-21.87-14.74c0,0-0.01,0-0.01-0.01c-0.97-0.41-1.96-0.8-2.96-1.17c-0.11-0.04-0.22-0.08-0.32-0.12 c-0.94-0.34-1.88-0.66-2.84-0.96c-0.1-0.03-0.19-0.06-0.29-0.09c-2.1-0.65-4.25-1.2-6.43-1.65c-0.12-0.02-0.24-0.04-0.36-0.07 c-0.91-0.18-1.84-0.35-2.76-0.49c-0.3-0.05-0.6-0.09-0.9-0.13c-0.77-0.11-1.54-0.21-2.31-0.29c-0.35-0.04-0.69-0.08-1.04-0.11 c-0.78-0.07-1.56-0.13-2.34-0.18c-0.31-0.02-0.63-0.04-0.94-0.06c-1.09-0.05-2.19-0.08-3.29-0.08c-19.01,0-36.21,7.71-48.67,20.16 c-6.23,6.23-11.27,13.64-14.75,21.88c-3.48,8.23-5.41,17.29-5.41,26.79c0,0.07,0.01,0.15,0.01,0.22c0,1.11,0.03,2.21,0.08,3.3 c0.01,0.15,0.02,0.3,0.03,0.44c0.06,1.03,0.13,2.05,0.23,3.07c0,0.02,0,0.03,0.01,0.04c1.65,16.18,8.91,30.7,19.8,41.59 c12.45,12.45,29.66,20.16,48.67,20.16s36.21-7.7,48.67-20.16C327.53,354.49,335.24,337.28,335.24,318.28z M298.91,284.21 L298.91,284.21l-52.83,54.61l-12.32-11.92c-2.54-2.46-6.61-2.39-9.07,0.15c-2.46,2.54-2.39,6.61,0.15,9.07l16.93,16.38 c2.54,2.46,6.61,2.39,9.07-0.15l57.29-59.22c2.46-2.54,2.39-6.61-0.15-9.07C305.44,281.6,301.38,281.66,298.91,284.21z" style="fill: inherit;"/></g><g xmlns="http://www.w3.org/2000/svg" id="__id51_so7lv7nj3m"><path d="M70.35,299.99c-1.77,3.07-5.69,4.13-8.77,2.37l-33.45-19.31c-3.07-1.77-4.13-5.7-2.37-8.77c1.77-3.07,5.69-4.13,8.77-2.37 l33.45,19.31C71.06,292.99,72.12,296.92,70.35,299.99z M348.14,318.28c0,22.56-9.15,43-23.94,57.79 C309.41,390.85,288.98,400,266.41,400c-20.96,0-40.07-7.9-54.53-20.87l-34.09,19.68c-0.01,0.01-0.03,0.02-0.04,0.03 c-0.23,0.16-0.48,0.31-0.73,0.44c-0.05,0.03-0.1,0.05-0.16,0.07c-0.24,0.12-0.49,0.22-0.74,0.3c-0.03,0.01-0.06,0.02-0.09,0.03 c-0.28,0.09-0.57,0.16-0.86,0.21c-0.06,0.01-0.12,0.02-0.19,0.03c-0.3,0.04-0.61,0.07-0.92,0.07c-0.01,0-0.02,0-0.03,0 c-0.29,0-0.58-0.03-0.87-0.07c-0.08-0.01-0.15-0.02-0.23-0.03c-0.28-0.05-0.56-0.11-0.83-0.2c-0.05-0.02-0.1-0.04-0.14-0.05 c-0.23-0.08-0.46-0.17-0.68-0.28c-0.07-0.03-0.13-0.06-0.2-0.09c-0.24-0.13-0.48-0.27-0.7-0.42c-0.02-0.01-0.04-0.02-0.06-0.03 L3.23,302.34c-2.06-1.18-3.22-3.35-3.22-5.57l0-193.13c-0.15-2.36,1-4.72,3.19-5.99L170.82,0.88c1.93-1.12,4.4-1.21,6.47-0.01 L344.9,97.64c0.09,0.05,0.17,0.12,0.26,0.18c0.07,0.05,0.14,0.09,0.21,0.14c0.11,0.08,0.22,0.16,0.32,0.24 c0.13,0.11,0.26,0.22,0.38,0.33c0.06,0.06,0.12,0.11,0.18,0.17c0.16,0.16,0.31,0.34,0.45,0.52c0.04,0.05,0.08,0.11,0.12,0.16 c0.13,0.18,0.25,0.36,0.36,0.55c0.02,0.03,0.03,0.05,0.05,0.07c0.01,0.01,0.01,0.03,0.02,0.04c0.08,0.14,0.15,0.29,0.22,0.44 c0.02,0.04,0.04,0.09,0.06,0.13c0.07,0.15,0.12,0.3,0.18,0.46c0.02,0.05,0.04,0.09,0.05,0.14c0.05,0.14,0.08,0.29,0.12,0.43 c0.02,0.06,0.03,0.12,0.05,0.18c0.03,0.13,0.05,0.26,0.07,0.39c0.01,0.08,0.03,0.16,0.04,0.24c0.01,0.12,0.02,0.24,0.03,0.36 c0.01,0.09,0.01,0.18,0.01,0.28c0,0.03,0,0.06,0,0.1l0.01,193.56c0,1.63-0.63,3.22-1.78,4.42 C347.51,306.71,348.14,312.42,348.14,318.28z M168.4,189.31l5.65,3.26v0l8.73-5.04l37.58-21.7L65.61,76.48l-46.32,26.74 L168.4,189.31z M78.48,69.05l154.75,89.35l39.71-22.93L118.18,46.12L78.48,69.05z M240.76,196l38.58-22.28v-27.09l-38.58,22.28V196z M131.03,38.71l154.77,89.35l43.03-24.84L174.06,13.86L131.03,38.71z M12.85,293.07l154.75,89.35V203.68l-4.48-2.59L12.86,114.35 L12.85,293.07z M180.51,382.41l22.28-12.86c-9.71-12.04-16.09-26.88-17.7-43.13c-0.03-0.35-0.05-0.7-0.08-1.06 c-0.08-0.99-0.17-1.97-0.22-2.97c-0.06-1.2-0.08-2.41-0.09-3.62c0-0.17-0.01-0.33-0.01-0.49c0-22.56,9.15-43,23.94-57.79 c14.79-14.79,35.22-23.94,57.79-23.94c0,0,0,0,0,0s0,0,0,0c1.3,0,2.59,0.04,3.87,0.1c0.42,0.02,0.84,0.05,1.26,0.08 c0.86,0.05,1.72,0.12,2.58,0.2c0.49,0.05,0.98,0.1,1.47,0.15c0.78,0.09,1.56,0.19,2.34,0.3c0.5,0.07,1.01,0.14,1.51,0.22 c0.78,0.13,1.55,0.27,2.33,0.42c0.47,0.09,0.94,0.17,1.41,0.27c1.15,0.24,2.3,0.5,3.44,0.79c0.53,0.14,1.06,0.29,1.58,0.44 c0.64,0.18,1.29,0.35,1.93,0.55c0.62,0.19,1.24,0.39,1.86,0.6c0.52,0.17,1.05,0.35,1.57,0.53c0.65,0.23,1.3,0.47,1.95,0.72 c0.45,0.17,0.9,0.35,1.35,0.53c0.69,0.28,1.37,0.55,2.05,0.85c0.32,0.14,0.64,0.29,0.96,0.43c2.58,1.16,5.08,2.44,7.5,3.85 c0.19,0.11,0.39,0.22,0.58,0.33c0.76,0.45,1.51,0.92,2.26,1.39c0.23,0.14,0.46,0.29,0.68,0.44c0.75,0.49,1.48,0.98,2.21,1.49 c0.17,0.12,0.35,0.25,0.52,0.37c3.77,2.67,7.32,5.64,10.58,8.9c4.17,4.17,7.87,8.8,11.06,13.79l-0.01-159.94l-43.01,24.83v38.24 h-0.03c0,2.22-1.16,4.38-3.22,5.57l-50.96,29.42c-1.05,0.75-2.34,1.19-3.73,1.19c-3.56,0-6.45-2.89-6.45-6.45v-30.8l-47.35,27.34v0 V382.41z M335.24,318.28c0-17.81-6.77-34.05-17.87-46.27c0,0-0.01-0.01-0.01-0.01c-0.74-0.81-1.5-1.61-2.27-2.38 c-6.23-6.22-13.64-11.26-21.87-14.74c0,0-0.01,0-0.01-0.01c-0.97-0.41-1.96-0.8-2.96-1.17c-0.11-0.04-0.22-0.08-0.32-0.12 c-0.94-0.34-1.88-0.66-2.84-0.96c-0.1-0.03-0.19-0.06-0.29-0.09c-2.1-0.65-4.25-1.2-6.43-1.65c-0.12-0.02-0.24-0.04-0.36-0.07 c-0.91-0.18-1.84-0.35-2.76-0.49c-0.3-0.05-0.6-0.09-0.9-0.13c-0.77-0.11-1.54-0.21-2.31-0.29c-0.35-0.04-0.69-0.08-1.04-0.11 c-0.78-0.07-1.56-0.13-2.34-0.18c-0.31-0.02-0.63-0.04-0.94-0.06c-1.09-0.05-2.19-0.08-3.29-0.08c-19.01,0-36.21,7.71-48.67,20.16 c-6.23,6.23-11.27,13.64-14.75,21.88c-3.48,8.23-5.41,17.29-5.41,26.79c0,0.07,0.01,0.15,0.01,0.22c0,1.11,0.03,2.21,0.08,3.3 c0.01,0.15,0.02,0.3,0.03,0.44c0.06,1.03,0.13,2.05,0.23,3.07c0,0.02,0,0.03,0.01,0.04c1.65,16.18,8.91,30.7,19.8,41.59 c12.45,12.45,29.66,20.16,48.67,20.16s36.21-7.7,48.67-20.16C327.53,354.49,335.24,337.28,335.24,318.28z M298.91,284.21 L298.91,284.21l-52.83,54.61l-12.32-11.92c-2.54-2.46-6.61-2.39-9.07,0.15c-2.46,2.54-2.39,6.61,0.15,9.07l16.93,16.38 c2.54,2.46,6.61,2.39,9.07-0.15l57.29-59.22c2.46-2.54,2.39-6.61-0.15-9.07C305.44,281.6,301.38,281.66,298.91,284.21z" style="fill: inherit;"/></g></svg>